<svg width="39" height="34" viewBox="0 0 39 34" fill="none" xmlns="http://www.w3.org/2000/svg">
<g clip-path="url(#clip0_284_534)">
<path d="M16.25 8.5C15.6541 8.5 15.1667 8.97806 15.1667 9.5625V24.4375C15.1667 25.0218 15.6541 25.5 16.25 25.5C16.8459 25.5 17.3333 25.0218 17.3333 24.4375V9.5625C17.3333 8.97806 16.8459 8.5 16.25 8.5ZM9.20833 30.8125H3.25V24.9688C3.25 24.0921 2.51868 23.375 1.625 23.375C0.731318 23.375 0 24.0921 0 24.9688V31.875C0 33.0438 0.975 34 2.16667 34H9.20833C10.102 34 10.8333 33.2827 10.8333 32.4062C10.8333 31.5296 10.102 30.8125 9.20833 30.8125ZM1.625 10.625C2.51868 10.625 3.25 9.90775 3.25 9.03125V3.1875H9.20833C10.102 3.1875 10.8333 2.47025 10.8333 1.59375C10.8333 0.717121 10.102 0 9.20833 0H2.16667C0.975 0 0 0.95625 0 2.125V9.03125C0 9.90775 0.731318 10.625 1.625 10.625ZM11.375 8.5H10.2917C9.39798 8.5 8.66667 9.21712 8.66667 10.0938V23.9062C8.66667 24.7827 9.39798 25.5 10.2917 25.5H11.375C12.2687 25.5 13 24.7827 13 23.9062V10.0938C13 9.21712 12.2687 8.5 11.375 8.5ZM36.8333 0H29.7917C28.898 0 28.1667 0.717121 28.1667 1.59375C28.1667 2.47025 28.898 3.1875 29.7917 3.1875H35.75V9.03125C35.75 9.90775 36.4813 10.625 37.375 10.625C38.2687 10.625 39 9.90775 39 9.03125V2.125C39 0.95625 38.025 0 36.8333 0ZM37.375 23.375C36.4813 23.375 35.75 24.0921 35.75 24.9688V30.8125H29.7917C28.898 30.8125 28.1667 31.5296 28.1667 32.4062C28.1667 33.2827 28.898 34 29.7917 34H36.8333C38.025 34 39 33.0438 39 31.875V24.9688C39 24.0921 38.2687 23.375 37.375 23.375ZM30.3333 23.9062V10.0938C30.3333 9.21712 29.602 8.5 28.7083 8.5H27.625C26.7313 8.5 26 9.21712 26 10.0938V23.9062C26 24.7827 26.7313 25.5 27.625 25.5H28.7083C29.602 25.5 30.3333 24.7827 30.3333 23.9062ZM22.2083 8.5H21.125C20.2313 8.5 19.5 9.21712 19.5 10.0938V23.9062C19.5 24.7827 20.2313 25.5 21.125 25.5H22.2083C23.102 25.5 23.8333 24.7827 23.8333 23.9062V10.0938C23.8333 9.21712 23.102 8.5 22.2083 8.5Z" fill="black" fill-opacity="0.8"/>
</g>
<defs>
<clipPath id="clip0_284_534">
<rect width="39" height="34" fill="white"/>
</clipPath>
</defs>
</svg>
