<svg id="Layer_1" data-name="Layer 1" xmlns="http://www.w3.org/2000/svg" viewBox="0 0 315 94"><defs><style>.cls-1{fill:#3c6db2;}.cls-2{fill:#ba313b;}.cls-3{fill:#101410;}.cls-4{fill:#adc52d;}</style></defs><path class="cls-1" d="M62.31,32.93l1.43-1.17a.61.61,0,0,0-.42,0H39a10.24,10.24,0,0,0-9,4.89Q18.21,54.85,6.4,73c-.11.15-.18.37-.37.46s.28,0,.44,0H31a10.68,10.68,0,0,0,5.69-2.77,20.24,20.24,0,0,0,2.68-3.56c6.8-10.25,13.41-20.58,20.08-30.78A14.44,14.44,0,0,1,62.31,32.93Z"/><path class="cls-2" d="M69.41,20.53A10.09,10.09,0,0,0,78.2,25.3c7.7.11,15.39,0,23.09,0h.35c-.75-1.19-1.47-2.35-2.2-3.54-3.54-5.52-7-11-10.75-16.47a10.11,10.11,0,0,0-5.45-4C82.62,1.12,82,1,81.35.83H56.7a1.74,1.74,0,0,0,.18.33Z"/><path class="cls-3" d="M308.82,56.08l-7.71-23.59a.49.49,0,0,0-.21-.31.49.49,0,0,0-.37-.09h-5.07a.64.64,0,0,0-.73.53q-3.5,10.43-7,20.87c-.38,1-.71,2.19-1.08,3.21h5.47c.27,0,.31-.18.38-.36.42-1.21.88-2.44,1.3-3.67a.27.27,0,0,1,0-.14.35.35,0,0,1,.1-.11l.14-.05a.34.34,0,0,1,.14,0h7.33c.26,0,.37,0,.46.36.35,1.2.72,2.41,1.07,3.62,0,.25.16.36.42.36H309v-.2A.41.41,0,0,1,308.82,56.08Zm-12.51-8.42c-.85,0-.85,0-.63-.81.68-2.36,1.34-4.69,2-7a3.12,3.12,0,0,0,.15-.39l2.53,8.24Z"/><path class="cls-4" d="M78.44,31.7a8.75,8.75,0,0,0-1.69.13,10.23,10.23,0,0,0-7.3,4.59C65.89,42,62.29,47.53,58.7,53.07l-2,3.1a1.22,1.22,0,0,0,.6,0H80.18A10,10,0,0,0,89,51.62c3.59-5.21,7-10.58,10.38-15.9L102,31.63H78.66Z"/><path class="cls-3" d="M245.81,43.26c-.5-3.58-1-7.19-1.49-10.77,0-.35-.18-.4-.46-.4H239a.46.46,0,0,0-.36.09.45.45,0,0,0-.21.31q-1.4,4-2.82,8.07c-.52,1.52-1.07,3-1.62,4.66l-.11-.26c-1.41-4.16-2.84-8.29-4.25-12.45,0-.28-.19-.42-.52-.42h-4.62c-.31,0-.42,0-.46.38l-1.26,8.37c-.52,3.41-1.05,6.82-1.56,10.25-.28,1.74-.55,3.47-.81,5.21,0,.18-.13.4.24.4h5c.24,0,.31,0,.33-.31.37-3.12.75-6.22,1.14-9.35l.59-4.74c.2,0,.2.28.25.41,1.51,4.22,3,8.42,4.57,12.64.15.42.2,1,.51,1.24s.92,0,1.38,0,.53-.14.66-.47q2.56-6.85,5.19-13.67a.39.39,0,0,1,.24-.44,4.84,4.84,0,0,0,.15,1.47q.66,6.38,1.3,12.73c0,.31.15.38.44.38h5.28l-.4-2.8C246.8,50.32,246.32,46.8,245.81,43.26Z"/><path class="cls-3" d="M283.47,32.51c0-.35,0-.42-.41-.42H278.4c-.42,0-.51,0-.51.49V47.29l-.37-.53-9.87-14.31a.69.69,0,0,0-.29-.27.78.78,0,0,0-.37-.09h-4.67c-.32,0-.46,0-.46.42V56.28c0,.33,0,.42.42.42h4.77c.4,0,.46,0,.46-.51V41.26l.38.53,10,14.53a.83.83,0,0,0,.3.29.9.9,0,0,0,.4.09h4.51c.35,0,.46,0,.46-.44Z"/><path class="cls-3" d="M171.57,46.58a6.4,6.4,0,0,0,4.27-3.52,9.15,9.15,0,0,0,.48-6,7.2,7.2,0,0,0-2.2-3.37,4.42,4.42,0,0,0-2.2-1.32,9,9,0,0,0-2.19-.3H158c-.29,0-.33,0-.33.35V56.34c0,.25,0,.36.33.36h5.69c.29,0,.35,0,.35-.36V47.68a.61.61,0,0,1,.11-.42,1.35,1.35,0,0,1,.69,0,1.3,1.3,0,0,1,.57.38l6.26,8.66a.68.68,0,0,0,.62.36h6.62l-7.65-9.88C171.33,46.58,171.46,46.6,171.57,46.58Zm-3.82-3.43h-3.41c-.31,0-.31-.15-.31-.35V37.37c0-.24,0-.33.31-.35a22.33,22.33,0,0,1,4.4.11,2.4,2.4,0,0,1,2.19,2.42,1.82,1.82,0,0,0,0,.33,2.9,2.9,0,0,1-.17,1.27,3.14,3.14,0,0,1-.68,1.08,3.08,3.08,0,0,1-1.07.71A3,3,0,0,1,167.75,43.15Z"/><path class="cls-3" d="M153.19,32.09H138.37c-.41,0-.46.14-.46.51V56.26c0,.3,0,.44.4.44h14.95c.35,0,.42,0,.39-.44v-4.4c0-.37,0-.48-.46-.46h-9c-.35,0-.47,0-.47-.44V47.53c0-.44.16-.53.55-.51H153c.37,0,.46,0,.46-.46v-4.4c0-.41-.11-.52-.53-.52h-8.79c-.37,0-.46,0-.46-.47V37.74c0-.35,0-.46.48-.46h9c.35,0,.46,0,.44-.44V32.45C153.68,32.16,153.54,32.09,153.19,32.09Z"/><path class="cls-3" d="M210.42,32.47a.49.49,0,0,0-.06-.17.69.69,0,0,0-.11-.13.56.56,0,0,0-.16-.07.55.55,0,0,0-.18,0h-5.19c-.37,0-.5.11-.63.47-2.2,6.59-4.4,13.32-6.73,20-.46,1.36-.9,2.73-1.39,4.13h5.33a.41.41,0,0,0,.19,0,.53.53,0,0,0,.17-.08.37.37,0,0,0,.13-.15.64.64,0,0,0,.06-.18c.41-1.19.85-2.38,1.27-3.59a.39.39,0,0,1,.17-.25.43.43,0,0,1,.29-.08h7.28a.33.33,0,0,1,.17,0,.41.41,0,0,1,.15.07.45.45,0,0,1,.11.13.34.34,0,0,1,.05.17c.35,1.2.73,2.39,1.08,3.58,0,.2,0,.37.4.37h5.51V56.3Zm-1.19,15.21h-4.4c.77-2.75,1.54-5.43,2.31-8.11.2.59.38,1.21.57,1.82.6,1.94,1.19,3.89,1.81,5.85C209.67,47.55,209.65,47.68,209.23,47.68Z"/><path class="cls-3" d="M129.19,32.42a26.63,26.63,0,0,0-4.18-.3h-8.27c-.42,0-.46.13-.46.48V56.3c0,.33,0,.42.42.42h4.72c.38,0,.42-.13.42-.46V49.11c0-.7,0-.68.75-.7a43.92,43.92,0,0,0,5.85,0,6.82,6.82,0,0,0,5.65-4,9.46,9.46,0,0,0,.91-3.7,9.59,9.59,0,0,0-.6-3.75,6.28,6.28,0,0,0-5.21-4.58Zm-1,10a3.21,3.21,0,0,1-1.09.67,3.36,3.36,0,0,1-1.26.19h-3.65c-.29,0-.33-.13-.33-.37V37.37c0-.15,0-.35.24-.35a40.36,40.36,0,0,1,4.4,0,2.77,2.77,0,0,1,1.51.59A2.84,2.84,0,0,1,128.9,39a3.18,3.18,0,0,1-.75,3.52Z"/><path class="cls-3" d="M197.58,37V32.56c0-.31,0-.42-.4-.42H179.11c-.28,0-.37,0-.37.35V37c0,.33,0,.39.39.39h5.76c.4,0,.47.11.47.49V56.32c0,.35,0,.44.44.44h4.72c.44,0,.53-.13.53-.55V37.88c0-.36,0-.47.46-.47h5.67C197.49,37.37,197.6,37.28,197.58,37Z"/><path class="cls-3" d="M256.89,44.38V32.53c0-.35,0-.44-.44-.44h-4.83c-.35,0-.46,0-.46.44V56.28c0,.33,0,.42.41.42h4.86c.35,0,.49,0,.46-.47Z"/><path class="cls-2" d="M127.71,81V73.38h2.38V92.46h-2.38V83.25h-9.06v9.21h-2.37V73.38h2.37V81Z"/><path class="cls-2" d="M135.54,73.38V84.59c0,3.1.94,6,4.59,6s4.6-2.88,4.6-6V73.38h2.37v12a6.77,6.77,0,0,1-.41,2.78,7,7,0,0,1-13.09,0,6.77,6.77,0,0,1-.41-2.78v-12Z"/><path class="cls-2" d="M152.73,90.27h5.78v2.19h-8.13V73.38h2.35Z"/><path class="cls-2" d="M162.12,73.38V84.59c0,3.1.94,6,4.59,6s4.6-2.88,4.6-6V73.38h2.35v12a7,7,0,0,1-1.89,5.18A7,7,0,0,1,164,92.2a7,7,0,0,1-4.21-6.79v-12Z"/><path class="cls-2" d="M184.24,73.38H194.5v2.2h-7.82V80.9h7.6v2.2h-7.6v7.17h7.82v2.19H184.3Z"/><path class="cls-2" d="M197.14,72.46l14.27,15V73.38h2.37V93.17l-14.27-15V92.46h-2.37Z"/><path class="cls-2" d="M217.17,73.38h10.31v2.2h-7.85V80.9h7.63v2.2h-7.63v7.17h7.85v2.19h-10.2Z"/><path class="cls-2" d="M242.12,92.46h-2.88l-5.58-8h-1v8h-2.38V73.38h2.88a10.08,10.08,0,0,1,5,.88A5.27,5.27,0,0,1,240,76.2a5.29,5.29,0,0,1-3.91,7.91Zm-9.45-10h.74c2.42,0,5.06-.44,5.06-3.47s-2.83-3.41-5.19-3.41h-.61Z"/><path class="cls-2" d="M261.31,82.81v.86a8.59,8.59,0,0,1-.55,3.55,8.8,8.8,0,0,1-4.92,5,8.59,8.59,0,0,1-3.54.64,9.89,9.89,0,1,1,8-16.09l-1.67,1.58A7.49,7.49,0,0,0,245.07,83a7.76,7.76,0,0,0,7.38,7.76,6.37,6.37,0,0,0,6.23-5.65h-4.82v-2.2Z"/><path class="cls-2" d="M266,92.46h-2.37V73.38H266Z"/></svg>